<svg version="1.1" id="Layer_1" xmlns="http://www.w3.org/2000/svg" xmlns:xlink="http://www.w3.org/1999/xlink" x="0px" y="0px"
	 width="100%" viewBox="0 0 1373 1018" enable-background="new 0 0 1373 1018" xml:space="preserve">
<path fill="#000000" opacity="1.000000" stroke="none" 
	d="
M758.000000,0.999992 
	C963.315857,1.000000 1168.631714,1.000000 1373.973755,1.000000 
	C1373.973755,340.286896 1373.973755,679.573792 1373.973755,1018.930298 
	C916.418823,1018.930298 458.837646,1018.930298 1.128240,1018.930298 
	C1.128240,679.781128 1.128240,340.562225 1.128240,1.000000 
	C246.697479,1.000000 492.395142,1.000000 738.541748,1.359155 
	C735.177917,3.852927 731.365112,5.987545 726.999756,8.431546 
	C742.290527,27.239029 757.165588,45.535088 772.465698,64.354042 
	C753.414124,68.415947 735.265503,71.544243 717.567200,76.335815 
	C706.898193,79.224297 699.393372,78.036598 692.199951,69.055565 
	C684.473145,59.408718 674.361145,52.173176 662.509705,47.868809 
	C655.863159,45.454811 649.167480,45.009739 641.979553,47.360981 
	C642.604797,48.568115 642.849060,49.160374 643.193481,49.687168 
	C653.462585,65.395576 663.769714,81.079262 673.997253,96.814690 
	C676.258423,100.293587 679.809082,103.565453 675.272095,109.448647 
	C684.654724,108.908875 692.398804,108.538734 700.131409,108.001778 
	C713.518738,107.072166 726.987610,106.696144 740.262207,104.902527 
	C762.714844,101.868782 785.034424,97.857941 807.436218,94.428841 
	C809.552307,94.104912 812.137268,94.444870 814.022705,95.414085 
	C824.067993,100.577911 833.896667,106.164841 843.966858,111.277222 
	C845.649841,112.131630 848.560486,112.131195 850.208496,111.239960 
	C861.746460,105.000145 873.063721,98.354233 884.530640,91.980446 
	C890.598755,88.607521 896.506348,84.372116 903.049927,82.553299 
	C914.984985,79.235847 927.393127,77.665459 939.507751,74.939125 
	C965.231873,69.150017 991.095581,63.600704 1015.300293,52.815151 
	C1023.209045,49.291061 1030.490723,43.996193 1037.348877,38.607277 
	C1041.834229,35.082806 1040.939087,31.258226 1035.973755,29.670279 
	C1022.195862,25.264015 1008.109802,21.573915 993.577087,22.197958 
	C981.034119,22.736561 968.404236,24.045040 956.085083,26.423656 
	C929.913696,31.476891 903.933411,37.514519 877.833374,42.949623 
	C874.910767,43.558224 871.437683,43.671043 868.698059,42.685005 
	C832.642517,29.707884 796.669312,16.501987 760.700256,3.285744 
	C759.660583,2.903725 758.893982,1.778613 758.000000,0.999992 
M646.105713,109.946426 
	C641.810242,110.292236 637.503235,110.532593 633.221436,111.002808 
	C617.914917,112.683716 602.544739,113.966492 587.331482,116.275307 
	C559.345398,120.522568 531.398804,125.084816 503.535980,130.075470 
	C466.298676,136.745209 429.600525,145.803741 393.488190,157.074173 
	C357.271973,168.377045 321.909302,181.856415 288.800415,200.646057 
	C263.061493,215.253189 239.333786,232.409012 220.702988,255.807480 
	C206.215805,274.002014 196.388351,294.447052 194.226425,317.682648 
	C191.828674,343.452911 196.738403,368.233124 207.405563,391.907501 
	C220.699188,421.410919 240.116486,446.565552 262.362823,469.662109 
	C270.540131,478.151917 279.666840,485.721832 288.196259,493.882996 
	C289.678925,495.301666 291.366486,497.667572 291.210785,499.442566 
	C290.400604,508.677002 288.689362,517.833923 287.922394,527.070251 
	C286.715057,541.609741 285.545685,556.181763 285.252838,570.757935 
	C285.050262,580.841248 286.031342,590.987427 287.056854,601.047058 
	C288.517181,615.371765 289.743317,629.786255 292.409302,643.909546 
	C299.969299,683.958984 313.111511,722.115845 332.490082,758.106567 
	C350.961090,792.411743 373.241302,823.840576 400.875061,851.389465 
	C402.074371,852.585083 403.148438,853.906311 404.398712,855.300415 
	C391.657562,855.888855 379.497833,855.583191 367.598663,857.197754 
	C348.475708,859.792603 332.160309,868.194885 320.975861,884.635925 
	C317.485809,889.766174 314.800262,895.440430 316.542694,901.930481 
	C318.951996,910.904358 326.259918,914.049561 334.294525,915.944946 
	C346.169098,918.746033 357.760803,916.072754 369.193726,913.324219 
	C392.395874,907.746460 414.377533,898.844482 435.463684,887.730896 
	C437.955566,886.417480 439.538696,886.323975 442.009247,888.263245 
	C460.738525,902.964172 480.702057,915.812073 501.777527,926.899780 
	C533.850403,943.773315 567.621765,956.035034 603.006104,963.827637 
	C627.849609,969.298889 653.013611,972.619934 678.435913,972.847656 
	C694.854004,972.994812 711.353516,972.396240 727.691223,970.827148 
	C744.138916,969.247437 760.592102,966.816589 776.760681,963.416748 
	C817.368774,954.877930 855.505310,939.680847 891.414062,918.857788 
	C935.331970,893.390320 973.201538,860.822937 1004.933044,821.286011 
	C1029.299072,790.926331 1048.879761,757.600525 1063.475342,721.458496 
	C1064.805298,718.165100 1066.766479,716.742798 1069.854004,716.214233 
	C1089.706665,712.815491 1108.956055,707.283813 1127.791626,700.179688 
	C1152.142578,690.995300 1174.506348,678.418945 1193.620605,660.678955 
	C1211.642700,643.952759 1224.230103,623.601440 1231.402588,600.013916 
	C1232.480957,596.467407 1233.198120,592.811035 1234.423828,587.813599 
	C1232.617798,589.290161 1231.976807,589.742554 1231.419189,590.281128 
	C1226.052124,595.464783 1221.130859,601.221985 1215.262817,605.754456 
	C1195.933594,620.684326 1173.754639,629.999023 1150.529541,636.902344 
	C1110.683716,648.745850 1069.649536,653.487061 1028.356567,654.689636 
	C997.970825,655.574585 967.478027,654.259705 937.082581,652.852600 
	C914.428528,651.803955 891.814758,649.397461 869.255371,646.933655 
	C848.852234,644.705444 828.409729,642.338501 808.229736,638.680115 
	C774.504395,632.566040 740.792664,626.162109 707.403748,618.456421 
	C653.379517,605.988464 600.276794,590.200012 548.221191,570.982056 
	C492.931885,550.570312 439.212341,526.831116 388.672272,496.304260 
	C348.355255,471.952271 310.878876,444.117096 280.833893,407.316132 
	C264.143188,386.872345 251.571808,364.315796 245.190262,338.464661 
	C240.013138,317.492523 242.221191,297.785919 253.346069,279.078064 
	C264.696075,259.991577 280.463348,245.139954 298.009399,232.043961 
	C331.033875,207.395218 367.858093,189.657318 405.816711,174.254959 
	C450.024261,156.316986 495.557648,142.328705 541.999512,131.503250 
	C568.446777,125.338448 595.164917,120.332466 621.773010,114.862663 
	C630.155884,113.139412 638.577393,111.604401 647.335999,109.946091 
	C647.494751,109.794006 647.653442,109.641914 647.812195,109.489830 
	C647.693787,109.455231 647.504150,109.357277 647.469116,109.396751 
	C647.298157,109.589020 647.168640,109.818039 646.105713,109.946426 
M1087.000854,498.456116 
	C1083.075195,482.173798 1079.813354,465.695679 1075.081909,449.651001 
	C1066.003540,418.865997 1052.686157,389.909576 1036.184692,362.309845 
	C1019.041992,333.637390 998.965698,307.279480 975.156982,283.980621 
	C961.514404,270.630127 946.802917,258.255371 931.766296,246.470215 
	C899.610229,221.267532 863.759460,202.564484 825.357178,188.771225 
	C798.426575,179.098343 770.852783,171.925858 742.315063,168.998138 
	C727.266846,167.454361 712.196167,165.953049 697.097595,165.144348 
	C688.535156,164.685730 679.881897,165.463791 671.294189,166.047012 
	C659.482239,166.849182 647.557312,167.193619 635.925659,169.172989 
	C616.680359,172.447968 597.437439,176.119507 578.540283,180.974106 
	C543.852051,189.885468 511.491364,204.654785 480.888824,223.133942 
	C454.486908,239.076599 429.910675,257.551514 408.165497,279.493713 
	C397.215240,290.543152 386.795166,302.157440 376.662567,313.968658 
	C361.162109,332.037079 348.107849,351.850189 335.929321,373.731476 
	C330.381073,367.741882 324.821198,362.091461 319.661011,356.096954 
	C308.378357,342.990143 301.742401,327.752747 302.182281,310.390900 
	C302.557129,295.596893 307.946442,282.014648 315.950745,269.552277 
	C331.648895,245.110977 352.985565,226.368851 376.508606,209.883362 
	C384.091583,204.569046 391.914001,199.596390 399.987610,194.227539 
	C398.864594,194.227539 397.996307,193.979355 397.370148,194.263916 
	C382.489502,201.026901 367.461182,207.495880 352.815613,214.738022 
	C329.991486,226.024414 309.881622,240.955917 293.646332,260.821472 
	C281.310089,275.916138 273.892670,293.122314 272.114410,312.466217 
	C270.704926,327.798767 274.142639,342.412750 280.715393,356.350708 
	C289.169861,374.279022 301.426666,389.474152 315.163635,403.417358 
	C324.788086,413.186340 335.371002,422.026062 345.717651,431.061127 
	C349.960327,434.765961 354.707764,437.892700 359.543732,441.521088 
	C393.218903,358.702148 448.609222,296.009674 527.356445,255.121506 
	C606.098999,214.235718 689.364014,205.159622 775.298279,226.252151 
	C838.235596,241.700089 893.069397,272.763458 938.661621,319.162964 
	C1022.407349,404.391541 1053.995483,506.990631 1039.178711,625.216492 
	C1041.526489,624.758057 1043.402222,624.242737 1045.311279,624.042480 
	C1061.627686,622.330933 1078.037842,621.260193 1094.245117,618.831970 
	C1108.896729,616.636780 1123.486816,613.579468 1137.820557,609.821350 
	C1159.090088,604.244507 1179.419189,596.117798 1197.166992,582.742859 
	C1202.088989,579.033569 1206.227783,574.284973 1210.362427,570.358337 
	C1195.728149,572.261475 1181.399048,574.799561 1166.964966,575.759705 
	C1157.685303,576.376953 1148.233521,574.859131 1138.890381,573.967163 
	C1124.229492,572.567566 1110.002197,569.108459 1096.208130,563.976501 
	C1094.903564,563.491272 1093.224731,561.826843 1093.133545,560.604309 
	C1092.249023,548.753784 1091.981201,536.851746 1090.893311,525.023621 
	C1090.101685,516.416565 1088.340820,507.898651 1087.000854,498.456116 
M685.234253,540.001648 
	C694.112305,540.667480 703.003235,541.197754 711.864929,542.036682 
	C721.010315,542.902588 730.236267,543.499268 739.234436,545.220215 
	C759.073914,549.014709 778.672424,553.854126 797.299866,561.953186 
	C811.730469,568.227478 825.854980,575.086243 837.446350,586.014038 
	C852.132629,599.859558 860.983704,617.407898 867.801086,636.025940 
	C869.217102,639.892944 870.865356,641.063721 874.768433,641.088501 
	C885.545410,641.157288 896.318481,641.711609 907.095581,641.970337 
	C912.351562,642.096558 917.613159,641.992188 922.809326,641.992188 
	C922.907043,640.799011 923.055786,640.282043 922.968262,639.808655 
	C922.702271,638.370972 922.257690,636.963562 922.036499,635.520752 
	C917.482300,605.816650 900.948364,583.766052 877.720337,565.946838 
	C860.873596,553.022949 841.743835,544.796082 821.718323,538.306335 
	C794.363159,529.441284 766.229187,525.551147 737.581604,525.040039 
	C724.386353,524.804688 711.183411,525.000000 697.983948,525.000000 
	C728.878967,515.641724 759.092468,505.117249 787.331116,489.362305 
	C817.633545,472.455902 845.192322,452.351196 866.185730,424.282074 
	C886.954773,396.513062 899.241211,366.194580 894.046448,330.613800 
	C891.476013,313.007599 883.487732,298.181702 870.617065,286.369080 
	C851.750427,269.053436 828.352112,261.836456 803.416626,260.185608 
	C779.661499,258.612915 756.186646,261.193665 733.104919,267.832153 
	C684.909546,281.693512 643.581238,306.389038 609.809570,343.632019 
	C591.330078,364.010986 576.517944,386.618347 566.967346,412.487122 
	C564.037903,420.421875 561.607422,428.550079 559.249207,436.676971 
	C558.879333,437.951233 559.719910,440.523651 560.715759,440.999573 
	C561.871826,441.552002 564.026306,440.787659 565.346558,439.957458 
	C566.253357,439.387268 566.658691,437.778412 566.979675,436.553009 
	C576.852905,398.859589 595.899536,366.461029 623.484375,339.070068 
	C636.930725,325.718292 651.761902,314.134094 668.030090,304.283875 
	C695.667297,287.549774 725.443176,277.529968 757.618896,275.112030 
	C770.971863,274.108582 784.316345,275.846008 797.005188,280.145874 
	C825.187927,289.696106 842.372009,308.744843 844.897644,339.096069 
	C846.498291,358.330719 841.585327,376.513794 833.563354,393.852234 
	C822.509094,417.744965 805.921570,437.294708 786.175110,454.517670 
	C770.519104,468.172882 753.242065,479.304871 735.185486,489.316376 
	C707.474670,504.680756 677.824280,515.225220 647.426208,523.774475 
	C640.151794,525.820312 632.718872,527.302246 625.215454,529.077454 
	C631.573486,502.190094 637.865173,475.911255 643.987061,449.592865 
	C649.041931,427.861542 653.901428,406.084717 658.835876,384.325439 
	C660.383240,377.502472 658.275513,373.303436 652.189758,369.998474 
	C646.083130,366.682190 639.519409,366.666565 632.955322,367.058075 
	C624.253296,367.577057 611.464844,373.201599 608.980774,384.753754 
	C607.170044,393.174652 605.349426,401.593506 603.504150,410.006927 
	C599.349976,428.947693 595.364990,447.928131 590.963745,466.811462 
	C585.830627,488.834991 580.416077,510.794952 574.814758,532.703552 
	C574.368652,534.448669 571.710083,536.335754 569.745239,536.831543 
	C566.129089,537.744080 562.234680,537.480042 558.509888,538.054138 
	C553.358337,538.848083 548.237000,539.872986 543.139038,540.968140 
	C538.455078,541.974487 538.885559,545.797729 539.050293,549.230469 
	C539.227417,552.921387 542.226624,552.098328 544.335693,551.934387 
	C549.397888,551.540955 554.432312,550.797668 559.481567,550.228210 
	C563.257202,549.802429 567.038513,549.427612 571.319031,548.977234 
	C569.530457,555.783630 567.979675,561.685364 566.340027,567.925049 
	C581.518372,572.637024 596.402954,577.257812 611.624939,581.983337 
	C612.134949,580.468933 612.740845,578.986267 613.134644,577.449280 
	C615.761108,567.199829 618.519104,556.978210 620.817200,546.654602 
	C621.410339,543.990173 622.252991,543.061401 624.863708,542.854248 
	C630.575439,542.401062 636.249207,541.290588 641.962341,541.070374 
	C656.060303,540.527100 670.171753,540.334167 685.234253,540.001648 
z"/>
<path fill="#023765" opacity="1.000000" stroke="none" 
	d="
M757.535339,0.999992 
	C758.893982,1.778613 759.660583,2.903725 760.700256,3.285744 
	C796.669312,16.501987 832.642517,29.707884 868.698059,42.685005 
	C871.437683,43.671043 874.910767,43.558224 877.833374,42.949623 
	C903.933411,37.514519 929.913696,31.476891 956.085083,26.423656 
	C968.404236,24.045040 981.034119,22.736561 993.577087,22.197958 
	C1008.109802,21.573915 1022.195862,25.264015 1035.973755,29.670279 
	C1040.939087,31.258226 1041.834229,35.082806 1037.348877,38.607277 
	C1030.490723,43.996193 1023.209045,49.291061 1015.300293,52.815151 
	C991.095581,63.600704 965.231873,69.150017 939.507751,74.939125 
	C927.393127,77.665459 914.984985,79.235847 903.049927,82.553299 
	C896.506348,84.372116 890.598755,88.607521 884.530640,91.980446 
	C873.063721,98.354233 861.746460,105.000145 850.208496,111.239960 
	C848.560486,112.131195 845.649841,112.131630 843.966858,111.277222 
	C833.896667,106.164841 824.067993,100.577911 814.022705,95.414085 
	C812.137268,94.444870 809.552307,94.104912 807.436218,94.428841 
	C785.034424,97.857941 762.714844,101.868782 740.262207,104.902527 
	C726.987610,106.696144 713.518738,107.072166 700.131409,108.001778 
	C692.398804,108.538734 684.654724,108.908875 675.272095,109.448647 
	C679.809082,103.565453 676.258423,100.293587 673.997253,96.814690 
	C663.769714,81.079262 653.462585,65.395576 643.193481,49.687168 
	C642.849060,49.160374 642.604797,48.568115 641.979553,47.360981 
	C649.167480,45.009739 655.863159,45.454811 662.509705,47.868809 
	C674.361145,52.173176 684.473145,59.408718 692.199951,69.055565 
	C699.393372,78.036598 706.898193,79.224297 717.567200,76.335815 
	C735.265503,71.544243 753.414124,68.415947 772.465698,64.354042 
	C757.165588,45.535088 742.290527,27.239029 726.999756,8.431546 
	C731.365112,5.987545 735.177917,3.852927 738.995361,1.359155 
	C740.066711,1.000000 741.133362,1.000000 742.692017,1.108349 
	C743.470764,1.230217 743.742798,1.157984 744.000000,1.000000 
	C748.356873,1.000000 752.713806,1.000000 757.535339,0.999992 
z"/>
<path fill="#000000" opacity="1.000000" stroke="none" 
	d="
M743.750000,1.000000 
	C743.742798,1.157984 743.470764,1.230217 743.092041,1.108349 
	C743.000000,1.000000 743.500000,1.000000 743.750000,1.000000 
z"/>
<path fill="#023765" opacity="1.000000" stroke="none" 
	d="
M646.981262,109.983231 
	C638.577393,111.604401 630.155884,113.139412 621.773010,114.862663 
	C595.164917,120.332466 568.446777,125.338448 541.999512,131.503250 
	C495.557648,142.328705 450.024261,156.316986 405.816711,174.254959 
	C367.858093,189.657318 331.033875,207.395218 298.009399,232.043961 
	C280.463348,245.139954 264.696075,259.991577 253.346069,279.078064 
	C242.221191,297.785919 240.013138,317.492523 245.190262,338.464661 
	C251.571808,364.315796 264.143188,386.872345 280.833893,407.316132 
	C310.878876,444.117096 348.355255,471.952271 388.672272,496.304260 
	C439.212341,526.831116 492.931885,550.570312 548.221191,570.982056 
	C600.276794,590.200012 653.379517,605.988464 707.403748,618.456421 
	C740.792664,626.162109 774.504395,632.566040 808.229736,638.680115 
	C828.409729,642.338501 848.852234,644.705444 869.255371,646.933655 
	C891.814758,649.397461 914.428528,651.803955 937.082581,652.852600 
	C967.478027,654.259705 997.970825,655.574585 1028.356567,654.689636 
	C1069.649536,653.487061 1110.683716,648.745850 1150.529541,636.902344 
	C1173.754639,629.999023 1195.933594,620.684326 1215.262817,605.754456 
	C1221.130859,601.221985 1226.052124,595.464783 1231.419189,590.281128 
	C1231.976807,589.742554 1232.617798,589.290161 1234.423828,587.813599 
	C1233.198120,592.811035 1232.480957,596.467407 1231.402588,600.013916 
	C1224.230103,623.601440 1211.642700,643.952759 1193.620605,660.678955 
	C1174.506348,678.418945 1152.142578,690.995300 1127.791626,700.179688 
	C1108.956055,707.283813 1089.706665,712.815491 1069.854004,716.214233 
	C1066.766479,716.742798 1064.805298,718.165100 1063.475342,721.458496 
	C1048.879761,757.600525 1029.299072,790.926331 1004.933044,821.286011 
	C973.201538,860.822937 935.331970,893.390320 891.414062,918.857788 
	C855.505310,939.680847 817.368774,954.877930 776.760681,963.416748 
	C760.592102,966.816589 744.138916,969.247437 727.691223,970.827148 
	C711.353516,972.396240 694.854004,972.994812 678.435913,972.847656 
	C653.013611,972.619934 627.849609,969.298889 603.006104,963.827637 
	C567.621765,956.035034 533.850403,943.773315 501.777527,926.899780 
	C480.702057,915.812073 460.738525,902.964172 442.009247,888.263245 
	C439.538696,886.323975 437.955566,886.417480 435.463684,887.730896 
	C414.377533,898.844482 392.395874,907.746460 369.193726,913.324219 
	C357.760803,916.072754 346.169098,918.746033 334.294525,915.944946 
	C326.259918,914.049561 318.951996,910.904358 316.542694,901.930481 
	C314.800262,895.440430 317.485809,889.766174 320.975861,884.635925 
	C332.160309,868.194885 348.475708,859.792603 367.598663,857.197754 
	C379.497833,855.583191 391.657562,855.888855 404.398712,855.300415 
	C403.148438,853.906311 402.074371,852.585083 400.875061,851.389465 
	C373.241302,823.840576 350.961090,792.411743 332.490082,758.106567 
	C313.111511,722.115845 299.969299,683.958984 292.409302,643.909546 
	C289.743317,629.786255 288.517181,615.371765 287.056854,601.047058 
	C286.031342,590.987427 285.050262,580.841248 285.252838,570.757935 
	C285.545685,556.181763 286.715057,541.609741 287.922394,527.070251 
	C288.689362,517.833923 290.400604,508.677002 291.210785,499.442566 
	C291.366486,497.667572 289.678925,495.301666 288.196259,493.882996 
	C279.666840,485.721832 270.540131,478.151917 262.362823,469.662109 
	C240.116486,446.565552 220.699188,421.410919 207.405563,391.907501 
	C196.738403,368.233124 191.828674,343.452911 194.226425,317.682648 
	C196.388351,294.447052 206.215805,274.002014 220.702988,255.807480 
	C239.333786,232.409012 263.061493,215.253189 288.800415,200.646057 
	C321.909302,181.856415 357.271973,168.377045 393.488190,157.074173 
	C429.600525,145.803741 466.298676,136.745209 503.535980,130.075470 
	C531.398804,125.084816 559.345398,120.522568 587.331482,116.275307 
	C602.544739,113.966492 617.914917,112.683716 633.221436,111.002808 
	C637.503235,110.532593 641.810242,110.292236 646.554932,109.976669 
	C647.004150,110.006920 646.981262,109.983223 646.981262,109.983231 
M473.370117,615.119873 
	C426.577209,590.790771 381.731934,563.203247 337.609436,532.594360 
	C331.507202,598.442139 341.651611,660.052246 369.062561,718.658752 
	C389.368927,762.075195 417.539673,799.693237 453.530121,832.367432 
	C493.346191,778.167603 518.947632,717.778564 542.157837,655.545837 
	C557.272156,662.348877 571.905457,668.935425 587.312439,675.870178 
	C582.153076,688.378296 578.032410,700.929749 571.989990,712.475586 
	C559.979797,735.424500 546.857971,757.790283 534.371216,780.493652 
	C533.239136,782.552002 532.679077,785.432068 533.076111,787.718201 
	C533.892395,792.418335 535.261108,797.074219 536.885559,801.573853 
	C547.140442,829.979736 568.201965,847.666565 595.213135,858.844910 
	C625.698303,871.460876 657.590210,872.412354 689.708008,867.753174 
	C719.713684,863.400513 747.993530,853.614136 774.322083,838.350891 
	C799.370911,823.829407 820.741638,805.121826 838.731201,782.502258 
	C849.588257,768.850891 857.806396,753.789551 863.010376,737.079529 
	C863.505798,735.488586 865.705811,733.250488 867.054077,733.291748 
	C876.822021,733.590149 886.578979,734.336914 896.329712,735.069763 
	C901.064087,735.425659 905.777710,736.057129 911.753967,736.698242 
	C907.993103,745.090942 904.918579,753.110962 900.927063,760.645142 
	C888.250122,784.573303 871.154602,804.938354 850.321716,822.237183 
	C823.080261,844.857483 792.298950,860.974365 758.464539,870.846252 
	C741.026184,875.934265 723.076172,879.523315 705.153564,882.604370 
	C693.935852,884.532837 682.344604,884.667419 670.910217,884.824768 
	C663.157776,884.931519 655.382202,883.728821 647.624695,883.026978 
	C624.386292,880.924316 602.187988,874.972290 581.677856,863.776428 
	C555.472412,849.471680 535.934998,829.256104 527.452637,799.798157 
	C527.111267,798.612732 526.618225,797.470947 526.257996,796.479614 
	C510.996002,815.676575 495.889709,834.677612 480.784271,853.677673 
	C548.440247,906.874084 665.115234,945.159363 788.131104,908.574341 
	C887.151672,879.125549 959.398438,816.694519 1007.477783,723.901001 
	C1003.969360,724.412415 1002.062744,724.865295 1000.140930,724.943176 
	C982.381958,725.663086 964.610901,727.053406 946.861694,726.825500 
	C917.961365,726.454407 889.061646,725.290588 860.187500,723.917175 
	C843.645447,723.130310 827.080383,721.848694 810.659241,719.746033 
	C789.819214,717.077698 769.076904,713.572876 748.360168,710.032227 
	C709.239502,703.346252 670.900818,693.391968 633.078430,681.456116 
	C578.136658,664.117798 525.263733,641.753601 473.370117,615.119873 
M418.410645,869.483337 
	C416.170319,867.968506 414.126160,865.700989 411.658661,865.057800 
	C391.883240,859.903259 372.260956,860.620056 353.187378,868.145935 
	C342.089905,872.524658 331.995880,878.529602 326.023712,889.580688 
	C322.324921,896.425232 324.174866,901.318481 331.473206,904.114685 
	C337.619293,906.469482 343.858826,905.693420 350.000427,904.451721 
	C365.098297,901.399475 379.158752,895.423584 392.342010,887.670349 
	C401.297028,882.403809 409.581848,875.997742 418.410645,869.483337 
z"/>
<path fill="#F67703" opacity="1.000000" stroke="none" 
	d="
M1087.006592,498.898560 
	C1088.340820,507.898651 1090.101685,516.416565 1090.893311,525.023621 
	C1091.981201,536.851746 1092.249023,548.753784 1093.133545,560.604309 
	C1093.224731,561.826843 1094.903564,563.491272 1096.208130,563.976501 
	C1110.002197,569.108459 1124.229492,572.567566 1138.890381,573.967163 
	C1148.233521,574.859131 1157.685303,576.376953 1166.964966,575.759705 
	C1181.399048,574.799561 1195.728149,572.261475 1210.362427,570.358337 
	C1206.227783,574.284973 1202.088989,579.033569 1197.166992,582.742859 
	C1179.419189,596.117798 1159.090088,604.244507 1137.820557,609.821350 
	C1123.486816,613.579468 1108.896729,616.636780 1094.245117,618.831970 
	C1078.037842,621.260193 1061.627686,622.330933 1045.311279,624.042480 
	C1043.402222,624.242737 1041.526489,624.758057 1039.178711,625.216492 
	C1053.995483,506.990631 1022.407349,404.391541 938.661621,319.162964 
	C893.069397,272.763458 838.235596,241.700089 775.298279,226.252151 
	C689.364014,205.159622 606.098999,214.235718 527.356445,255.121506 
	C448.609222,296.009674 393.218903,358.702148 359.543732,441.521088 
	C354.707764,437.892700 349.960327,434.765961 345.717651,431.061127 
	C335.371002,422.026062 324.788086,413.186340 315.163635,403.417358 
	C301.426666,389.474152 289.169861,374.279022 280.715393,356.350708 
	C274.142639,342.412750 270.704926,327.798767 272.114410,312.466217 
	C273.892670,293.122314 281.310089,275.916138 293.646332,260.821472 
	C309.881622,240.955917 329.991486,226.024414 352.815613,214.738022 
	C367.461182,207.495880 382.489502,201.026901 397.370148,194.263916 
	C397.996307,193.979355 398.864594,194.227539 399.987610,194.227539 
	C391.914001,199.596390 384.091583,204.569046 376.508606,209.883362 
	C352.985565,226.368851 331.648895,245.110977 315.950745,269.552277 
	C307.946442,282.014648 302.557129,295.596893 302.182281,310.390900 
	C301.742401,327.752747 308.378357,342.990143 319.661011,356.096954 
	C324.821198,362.091461 330.381073,367.741882 335.929321,373.731476 
	C348.107849,351.850189 361.162109,332.037079 376.662567,313.968658 
	C386.795166,302.157440 397.215240,290.543152 408.165497,279.493713 
	C429.910675,257.551514 454.486908,239.076599 480.888824,223.133942 
	C511.491364,204.654785 543.852051,189.885468 578.540283,180.974106 
	C597.437439,176.119507 616.680359,172.447968 635.925659,169.172989 
	C647.557312,167.193619 659.482239,166.849182 671.294189,166.047012 
	C679.881897,165.463791 688.535156,164.685730 697.097595,165.144348 
	C712.196167,165.953049 727.266846,167.454361 742.315063,168.998138 
	C770.852783,171.925858 798.426575,179.098343 825.357178,188.771225 
	C863.759460,202.564484 899.610229,221.267532 931.766296,246.470215 
	C946.802917,258.255371 961.514404,270.630127 975.156982,283.980621 
	C998.965698,307.279480 1019.041992,333.637390 1036.184692,362.309845 
	C1052.686157,389.909576 1066.003540,418.865997 1075.081909,449.651001 
	C1079.813354,465.695679 1083.075195,482.173798 1087.006592,498.898560 
z"/>
<path fill="#F67703" opacity="1.000000" stroke="none" 
	d="
M684.755981,540.000977 
	C670.171753,540.334167 656.060303,540.527100 641.962341,541.070374 
	C636.249207,541.290588 630.575439,542.401062 624.863708,542.854248 
	C622.252991,543.061401 621.410339,543.990173 620.817200,546.654602 
	C618.519104,556.978210 615.761108,567.199829 613.134644,577.449280 
	C612.740845,578.986267 612.134949,580.468933 611.624939,581.983337 
	C596.402954,577.257812 581.518372,572.637024 566.340027,567.925049 
	C567.979675,561.685364 569.530457,555.783630 571.319031,548.977234 
	C567.038513,549.427612 563.257202,549.802429 559.481567,550.228210 
	C554.432312,550.797668 549.397888,551.540955 544.335693,551.934387 
	C542.226624,552.098328 539.227417,552.921387 539.050293,549.230469 
	C538.885559,545.797729 538.455078,541.974487 543.139038,540.968140 
	C548.237000,539.872986 553.358337,538.848083 558.509888,538.054138 
	C562.234680,537.480042 566.129089,537.744080 569.745239,536.831543 
	C571.710083,536.335754 574.368652,534.448669 574.814758,532.703552 
	C580.416077,510.794952 585.830627,488.834991 590.963745,466.811462 
	C595.364990,447.928131 599.349976,428.947693 603.504150,410.006927 
	C605.349426,401.593506 607.170044,393.174652 608.980774,384.753754 
	C611.464844,373.201599 624.253296,367.577057 632.955322,367.058075 
	C639.519409,366.666565 646.083130,366.682190 652.189758,369.998474 
	C658.275513,373.303436 660.383240,377.502472 658.835876,384.325439 
	C653.901428,406.084717 649.041931,427.861542 643.987061,449.592865 
	C637.865173,475.911255 631.573486,502.190094 625.215454,529.077454 
	C632.718872,527.302246 640.151794,525.820312 647.426208,523.774475 
	C677.824280,515.225220 707.474670,504.680756 735.185486,489.316376 
	C753.242065,479.304871 770.519104,468.172882 786.175110,454.517670 
	C805.921570,437.294708 822.509094,417.744965 833.563354,393.852234 
	C841.585327,376.513794 846.498291,358.330719 844.897644,339.096069 
	C842.372009,308.744843 825.187927,289.696106 797.005188,280.145874 
	C784.316345,275.846008 770.971863,274.108582 757.618896,275.112030 
	C725.443176,277.529968 695.667297,287.549774 668.030090,304.283875 
	C651.761902,314.134094 636.930725,325.718292 623.484375,339.070068 
	C595.899536,366.461029 576.852905,398.859589 566.979675,436.553009 
	C566.658691,437.778412 566.253357,439.387268 565.346558,439.957458 
	C564.026306,440.787659 561.871826,441.552002 560.715759,440.999573 
	C559.719910,440.523651 558.879333,437.951233 559.249207,436.676971 
	C561.607422,428.550079 564.037903,420.421875 566.967346,412.487122 
	C576.517944,386.618347 591.330078,364.010986 609.809570,343.632019 
	C643.581238,306.389038 684.909546,281.693512 733.104919,267.832153 
	C756.186646,261.193665 779.661499,258.612915 803.416626,260.185608 
	C828.352112,261.836456 851.750427,269.053436 870.617065,286.369080 
	C883.487732,298.181702 891.476013,313.007599 894.046448,330.613800 
	C899.241211,366.194580 886.954773,396.513062 866.185730,424.282074 
	C845.192322,452.351196 817.633545,472.455902 787.331116,489.362305 
	C759.092468,505.117249 728.878967,515.641724 697.983948,525.000000 
	C711.183411,525.000000 724.386353,524.804688 737.581604,525.040039 
	C766.229187,525.551147 794.363159,529.441284 821.718323,538.306335 
	C841.743835,544.796082 860.873596,553.022949 877.720337,565.946838 
	C900.948364,583.766052 917.482300,605.816650 922.036499,635.520752 
	C922.257690,636.963562 922.702271,638.370972 922.968262,639.808655 
	C923.055786,640.282043 922.907043,640.799011 922.809326,641.992188 
	C917.613159,641.992188 912.351562,642.096558 907.095581,641.970337 
	C896.318481,641.711609 885.545410,641.157288 874.768433,641.088501 
	C870.865356,641.063721 869.217102,639.892944 867.801086,636.025940 
	C860.983704,617.407898 852.132629,599.859558 837.446350,586.014038 
	C825.854980,575.086243 811.730469,568.227478 797.299866,561.953186 
	C778.672424,553.854126 759.073914,549.014709 739.234436,545.220215 
	C730.236267,543.499268 721.010315,542.902588 711.864929,542.036682 
	C703.003235,541.197754 694.112305,540.667480 684.755981,540.000977 
z"/>
<path fill="#023765" opacity="1.000000" stroke="none" 
	d="
M647.014282,110.020477 
	C647.168640,109.818039 647.298157,109.589020 647.469116,109.396751 
	C647.504150,109.357277 647.693787,109.455231 647.812195,109.489822 
	C647.653442,109.641914 647.494751,109.794006 647.158630,109.964661 
	C646.981262,109.983223 647.004150,110.006920 647.014282,110.020477 
z"/>
<path fill="#000000" opacity="1.000000" stroke="none" 
	d="
M473.694305,615.301758 
	C525.263733,641.753601 578.136658,664.117798 633.078430,681.456116 
	C670.900818,693.391968 709.239502,703.346252 748.360168,710.032227 
	C769.076904,713.572876 789.819214,717.077698 810.659241,719.746033 
	C827.080383,721.848694 843.645447,723.130310 860.187500,723.917175 
	C889.061646,725.290588 917.961365,726.454407 946.861694,726.825500 
	C964.610901,727.053406 982.381958,725.663086 1000.140930,724.943176 
	C1002.062744,724.865295 1003.969360,724.412415 1007.477783,723.901001 
	C959.398438,816.694519 887.151672,879.125549 788.131104,908.574341 
	C665.115234,945.159363 548.440247,906.874084 480.784271,853.677673 
	C495.889709,834.677612 510.996002,815.676575 526.257996,796.479614 
	C526.618225,797.470947 527.111267,798.612732 527.452637,799.798157 
	C535.934998,829.256104 555.472412,849.471680 581.677856,863.776428 
	C602.187988,874.972290 624.386292,880.924316 647.624695,883.026978 
	C655.382202,883.728821 663.157776,884.931519 670.910217,884.824768 
	C682.344604,884.667419 693.935852,884.532837 705.153564,882.604370 
	C723.076172,879.523315 741.026184,875.934265 758.464539,870.846252 
	C792.298950,860.974365 823.080261,844.857483 850.321716,822.237183 
	C871.154602,804.938354 888.250122,784.573303 900.927063,760.645142 
	C904.918579,753.110962 907.993103,745.090942 911.753967,736.698242 
	C905.777710,736.057129 901.064087,735.425659 896.329712,735.069763 
	C886.578979,734.336914 876.822021,733.590149 867.054077,733.291748 
	C865.705811,733.250488 863.505798,735.488586 863.010376,737.079529 
	C857.806396,753.789551 849.588257,768.850891 838.731201,782.502258 
	C820.741638,805.121826 799.370911,823.829407 774.322083,838.350891 
	C747.993530,853.614136 719.713684,863.400513 689.708008,867.753174 
	C657.590210,872.412354 625.698303,871.460876 595.213135,858.844910 
	C568.201965,847.666565 547.140442,829.979736 536.885559,801.573853 
	C535.261108,797.074219 533.892395,792.418335 533.076111,787.718201 
	C532.679077,785.432068 533.239136,782.552002 534.371216,780.493652 
	C546.857971,757.790283 559.979797,735.424500 571.989990,712.475586 
	C578.032410,700.929749 582.153076,688.378296 587.312439,675.870178 
	C571.905457,668.935425 557.272156,662.348877 542.157837,655.545837 
	C518.947632,717.778564 493.346191,778.167603 453.530121,832.367432 
	C417.539673,799.693237 389.368927,762.075195 369.062561,718.658752 
	C341.651611,660.052246 331.507202,598.442139 337.609436,532.594360 
	C381.731934,563.203247 426.577209,590.790771 473.694305,615.301758 
z"/>
<path fill="#000000" opacity="1.000000" stroke="none" 
	d="
M418.288513,869.792358 
	C409.581848,875.997742 401.297028,882.403809 392.342010,887.670349 
	C379.158752,895.423584 365.098297,901.399475 350.000427,904.451721 
	C343.858826,905.693420 337.619293,906.469482 331.473206,904.114685 
	C324.174866,901.318481 322.324921,896.425232 326.023712,889.580688 
	C331.995880,878.529602 342.089905,872.524658 353.187378,868.145935 
	C372.260956,860.620056 391.883240,859.903259 411.658661,865.057800 
	C414.126160,865.700989 416.170319,867.968506 418.288513,869.792358 
z"/>
</svg>